# xmcd
#
# Track frame offsets: 
#        150
#        15483
#        22162
#        28465
#        46021
#        51705
#        54277
#        74916
#        84259
#        88426
#        114564
#        132383
#        160013
#        181517
#        201338
#        223388
#        242484
#        260268
#        278142
#        296871
#        317732
#
# Disc length: 4330 seconds
#
# Revision: 0
# Processed by: cddbd v1.5.2PL0 Copyright (c) Steve Scherf et al.
# Submitted via: ExactAudioCopy v0.95b3
#
DISCID=4210e815
DTITLE=Jimi Hendrix  - Unsurpassed Masters Volume 3
DYEAR=1900
DGENRE=
TTITLE0=Jammin' With Devon 22 April 1969
TTITLE1=Izabella Overdub Session 29 September 1969
TTITLE2=Izabella Overdub Session 29 September 1969
TTITLE3=Izabella Overdub Session 29 September 1969
TTITLE4=Honeybed (including Nightbird Flying) 23 December 1969
TTITLE5=Honeybed (including Nightbird Flying) 23 December 1969
TTITLE6=Honeybed (including Nightbird Flying) 23 December 1969
TTITLE7=Honeybed (including Nightbird Flying) 23 December 1969
TTITLE8=Honeybed (including Nightbird Flying) 23 December 1969
TTITLE9=Beginnings (Complete Studio - Juma Audible On Congas)
TTITLE10=Bleeding Heart
TTITLE11=Bolero
TTITLE12=Crash Landing (Alternate AD Version, Flat Mix)
TTITLE13=Somewhere (Alternate AD Version)
TTITLE14=Peace In Mississippe (Alternate AD Version)
TTITLE15=Stone Free (Again) (Alternate AD Version, Vocal Flat)
TTITLE16=Message To Love (Alternate AD Version)
TTITLE17=Come Down Hard On Me Baby (Alternate AD Version)
TTITLE18=Power Of Soul (Alternate AD Version)
TTITLE19=MLK (Alternate Version)
TTITLE20=Power Of Soul (Edit - Sounds Like A Short Mixing Session)
EXTD=
EXTT0=
EXTT1=
EXTT2=
EXTT3=
EXTT4=
EXTT5=
EXTT6=
EXTT7=
EXTT8=
EXTT9=
EXTT10=
EXTT11=
EXTT12=
EXTT13=
EXTT14=
EXTT15=
EXTT16=
EXTT17=
EXTT18=
EXTT19=
EXTT20=
PLAYORDER=
